<mxfile host="app.diagrams.net" modified="2023-04-22T14:26:01.943Z" agent="Mozilla/5.0 (Windows NT 10.0; Win64; x64) AppleWebKit/537.36 (KHTML, like Gecko) Chrome/112.0.0.0 Safari/537.36" etag="HAlLTr0No8ulFDavEuDz" version="21.2.1" type="device">
  <diagram name="Page-1" id="ftWvcqd5ZJi-xioal4qi">
    <mxGraphModel dx="1434" dy="806" grid="1" gridSize="10" guides="1" tooltips="1" connect="1" arrows="1" fold="1" page="1" pageScale="1" pageWidth="850" pageHeight="1100" math="0" shadow="0">
      <root>
        <mxCell id="0" />
        <mxCell id="1" parent="0" />
        <mxCell id="Ww_5MGNS50c624U9AVJw-50" value="" style="whiteSpace=wrap;html=1;aspect=fixed;fillColor=#DABBE7;strokeColor=#9673a6;" vertex="1" parent="1">
          <mxGeometry x="150" y="730" width="320" height="320" as="geometry" />
        </mxCell>
        <mxCell id="Ww_5MGNS50c624U9AVJw-29" value="" style="edgeStyle=orthogonalEdgeStyle;rounded=0;orthogonalLoop=1;jettySize=auto;html=1;" edge="1" parent="1" source="Ww_5MGNS50c624U9AVJw-3" target="Ww_5MGNS50c624U9AVJw-28">
          <mxGeometry relative="1" as="geometry" />
        </mxCell>
        <mxCell id="Ww_5MGNS50c624U9AVJw-3" value="RoomBrowser" style="rounded=0;whiteSpace=wrap;html=1;fillColor=#f8cecc;strokeColor=#b85450;" vertex="1" parent="1">
          <mxGeometry x="425" y="380" width="120" height="60" as="geometry" />
        </mxCell>
        <mxCell id="Ww_5MGNS50c624U9AVJw-22" value="" style="edgeStyle=orthogonalEdgeStyle;rounded=0;orthogonalLoop=1;jettySize=auto;html=1;" edge="1" parent="1" source="Ww_5MGNS50c624U9AVJw-6" target="Ww_5MGNS50c624U9AVJw-21">
          <mxGeometry relative="1" as="geometry" />
        </mxCell>
        <mxCell id="Ww_5MGNS50c624U9AVJw-6" value="Lobby" style="rounded=0;whiteSpace=wrap;html=1;fillColor=#e1d5e7;strokeColor=#9673a6;" vertex="1" parent="1">
          <mxGeometry x="240" y="270" width="120" height="60" as="geometry" />
        </mxCell>
        <mxCell id="Ww_5MGNS50c624U9AVJw-14" style="edgeStyle=orthogonalEdgeStyle;rounded=0;orthogonalLoop=1;jettySize=auto;html=1;entryX=1;entryY=0.25;entryDx=0;entryDy=0;fillColor=#d5e8d4;strokeColor=#82b366;strokeWidth=2;" edge="1" parent="1" source="Ww_5MGNS50c624U9AVJw-8" target="Ww_5MGNS50c624U9AVJw-6">
          <mxGeometry relative="1" as="geometry">
            <Array as="points">
              <mxPoint x="480" y="285" />
            </Array>
          </mxGeometry>
        </mxCell>
        <mxCell id="Ww_5MGNS50c624U9AVJw-8" value="LoginForm" style="rounded=0;whiteSpace=wrap;html=1;fillColor=#f8cecc;strokeColor=#b85450;" vertex="1" parent="1">
          <mxGeometry x="425" y="140" width="120" height="60" as="geometry" />
        </mxCell>
        <mxCell id="Ww_5MGNS50c624U9AVJw-11" value="" style="edgeStyle=orthogonalEdgeStyle;rounded=0;orthogonalLoop=1;jettySize=auto;html=1;" edge="1" parent="1" source="Ww_5MGNS50c624U9AVJw-9" target="Ww_5MGNS50c624U9AVJw-10">
          <mxGeometry relative="1" as="geometry" />
        </mxCell>
        <mxCell id="Ww_5MGNS50c624U9AVJw-9" value="Login" style="rounded=0;whiteSpace=wrap;html=1;fillColor=#e1d5e7;strokeColor=#9673a6;" vertex="1" parent="1">
          <mxGeometry x="240" y="20" width="120" height="60" as="geometry" />
        </mxCell>
        <mxCell id="Ww_5MGNS50c624U9AVJw-12" value="" style="edgeStyle=orthogonalEdgeStyle;rounded=0;orthogonalLoop=1;jettySize=auto;html=1;fillColor=#d5e8d4;strokeColor=#82b366;strokeWidth=2;" edge="1" parent="1" source="Ww_5MGNS50c624U9AVJw-10" target="Ww_5MGNS50c624U9AVJw-6">
          <mxGeometry relative="1" as="geometry" />
        </mxCell>
        <mxCell id="Ww_5MGNS50c624U9AVJw-13" value="" style="edgeStyle=orthogonalEdgeStyle;rounded=1;orthogonalLoop=1;jettySize=auto;html=1;fillColor=#f8cecc;strokeColor=#b85450;strokeWidth=2;" edge="1" parent="1" source="Ww_5MGNS50c624U9AVJw-10" target="Ww_5MGNS50c624U9AVJw-8">
          <mxGeometry relative="1" as="geometry" />
        </mxCell>
        <mxCell id="Ww_5MGNS50c624U9AVJw-10" value="user is logged in" style="rhombus;whiteSpace=wrap;html=1;fillColor=#fff2cc;strokeColor=#d6b656;" vertex="1" parent="1">
          <mxGeometry x="240" y="130" width="120" height="80" as="geometry" />
        </mxCell>
        <mxCell id="Ww_5MGNS50c624U9AVJw-24" style="edgeStyle=orthogonalEdgeStyle;rounded=0;orthogonalLoop=1;jettySize=auto;html=1;exitX=0;exitY=0.5;exitDx=0;exitDy=0;entryX=0.5;entryY=1;entryDx=0;entryDy=0;" edge="1" parent="1" source="Ww_5MGNS50c624U9AVJw-16" target="Ww_5MGNS50c624U9AVJw-23">
          <mxGeometry relative="1" as="geometry" />
        </mxCell>
        <mxCell id="Ww_5MGNS50c624U9AVJw-45" value="" style="edgeStyle=orthogonalEdgeStyle;rounded=0;orthogonalLoop=1;jettySize=auto;html=1;" edge="1" parent="1" source="Ww_5MGNS50c624U9AVJw-16" target="Ww_5MGNS50c624U9AVJw-44">
          <mxGeometry relative="1" as="geometry" />
        </mxCell>
        <mxCell id="Ww_5MGNS50c624U9AVJw-16" value="Room" style="rounded=0;whiteSpace=wrap;html=1;fillColor=#e1d5e7;strokeColor=#9673a6;" vertex="1" parent="1">
          <mxGeometry x="240" y="510" width="120" height="60" as="geometry" />
        </mxCell>
        <mxCell id="Ww_5MGNS50c624U9AVJw-17" style="edgeStyle=orthogonalEdgeStyle;rounded=0;orthogonalLoop=1;jettySize=auto;html=1;entryX=1;entryY=0.25;entryDx=0;entryDy=0;fillColor=#d5e8d4;strokeColor=#82b366;strokeWidth=2;" edge="1" parent="1" target="Ww_5MGNS50c624U9AVJw-16">
          <mxGeometry relative="1" as="geometry">
            <Array as="points">
              <mxPoint x="480" y="525" />
            </Array>
            <mxPoint x="480" y="440" as="sourcePoint" />
          </mxGeometry>
        </mxCell>
        <mxCell id="Ww_5MGNS50c624U9AVJw-19" value="" style="edgeStyle=orthogonalEdgeStyle;rounded=0;orthogonalLoop=1;jettySize=auto;html=1;fillColor=#d5e8d4;strokeColor=#82b366;strokeWidth=2;" edge="1" parent="1" source="Ww_5MGNS50c624U9AVJw-21" target="Ww_5MGNS50c624U9AVJw-16">
          <mxGeometry relative="1" as="geometry" />
        </mxCell>
        <mxCell id="Ww_5MGNS50c624U9AVJw-20" value="" style="edgeStyle=orthogonalEdgeStyle;rounded=1;orthogonalLoop=1;jettySize=auto;html=1;fillColor=#f8cecc;strokeColor=#b85450;strokeWidth=2;" edge="1" parent="1" source="Ww_5MGNS50c624U9AVJw-21">
          <mxGeometry relative="1" as="geometry">
            <mxPoint x="425" y="410" as="targetPoint" />
          </mxGeometry>
        </mxCell>
        <mxCell id="Ww_5MGNS50c624U9AVJw-21" value="Room selected" style="rhombus;whiteSpace=wrap;html=1;fillColor=#fff2cc;strokeColor=#d6b656;" vertex="1" parent="1">
          <mxGeometry x="240" y="370" width="120" height="80" as="geometry" />
        </mxCell>
        <mxCell id="Ww_5MGNS50c624U9AVJw-25" style="edgeStyle=orthogonalEdgeStyle;rounded=0;orthogonalLoop=1;jettySize=auto;html=1;exitX=0.5;exitY=0;exitDx=0;exitDy=0;entryX=0;entryY=0.5;entryDx=0;entryDy=0;" edge="1" parent="1" source="Ww_5MGNS50c624U9AVJw-23" target="Ww_5MGNS50c624U9AVJw-6">
          <mxGeometry relative="1" as="geometry">
            <Array as="points">
              <mxPoint x="165" y="310" />
              <mxPoint x="240" y="310" />
            </Array>
          </mxGeometry>
        </mxCell>
        <mxCell id="Ww_5MGNS50c624U9AVJw-23" value="Back option selected" style="rhombus;whiteSpace=wrap;html=1;fillColor=#fff2cc;strokeColor=#d6b656;" vertex="1" parent="1">
          <mxGeometry x="120" y="390" width="90" height="80" as="geometry" />
        </mxCell>
        <mxCell id="Ww_5MGNS50c624U9AVJw-34" value="" style="edgeStyle=orthogonalEdgeStyle;rounded=0;orthogonalLoop=1;jettySize=auto;html=1;" edge="1" parent="1" source="Ww_5MGNS50c624U9AVJw-28" target="Ww_5MGNS50c624U9AVJw-32">
          <mxGeometry relative="1" as="geometry" />
        </mxCell>
        <mxCell id="Ww_5MGNS50c624U9AVJw-28" value="Create Room" style="rounded=1;whiteSpace=wrap;html=1;fillColor=#d5e8d4;strokeColor=#82b366;" vertex="1" parent="1">
          <mxGeometry x="610" y="380" width="120" height="60" as="geometry" />
        </mxCell>
        <mxCell id="Ww_5MGNS50c624U9AVJw-35" style="edgeStyle=orthogonalEdgeStyle;rounded=0;orthogonalLoop=1;jettySize=auto;html=1;exitX=0.5;exitY=1;exitDx=0;exitDy=0;entryX=1;entryY=0.75;entryDx=0;entryDy=0;" edge="1" parent="1" source="Ww_5MGNS50c624U9AVJw-32" target="Ww_5MGNS50c624U9AVJw-16">
          <mxGeometry relative="1" as="geometry" />
        </mxCell>
        <mxCell id="Ww_5MGNS50c624U9AVJw-32" value="RoomSettings" style="rounded=0;whiteSpace=wrap;html=1;fillColor=#f8cecc;strokeColor=#b85450;" vertex="1" parent="1">
          <mxGeometry x="780" y="380" width="120" height="60" as="geometry" />
        </mxCell>
        <mxCell id="Ww_5MGNS50c624U9AVJw-38" value="JoinTeamForm" style="rounded=0;whiteSpace=wrap;html=1;fillColor=#f8cecc;strokeColor=#b85450;" vertex="1" parent="1">
          <mxGeometry x="425" y="620" width="120" height="60" as="geometry" />
        </mxCell>
        <mxCell id="Ww_5MGNS50c624U9AVJw-39" style="edgeStyle=orthogonalEdgeStyle;rounded=0;orthogonalLoop=1;jettySize=auto;html=1;exitX=0;exitY=0.5;exitDx=0;exitDy=0;" edge="1" parent="1" source="Ww_5MGNS50c624U9AVJw-40">
          <mxGeometry relative="1" as="geometry">
            <mxPoint x="165" y="480" as="targetPoint" />
          </mxGeometry>
        </mxCell>
        <mxCell id="Ww_5MGNS50c624U9AVJw-40" value="Game" style="rounded=0;whiteSpace=wrap;html=1;fillColor=#e1d5e7;strokeColor=#9673a6;" vertex="1" parent="1">
          <mxGeometry x="240" y="750" width="120" height="60" as="geometry" />
        </mxCell>
        <mxCell id="Ww_5MGNS50c624U9AVJw-41" style="edgeStyle=orthogonalEdgeStyle;rounded=0;orthogonalLoop=1;jettySize=auto;html=1;entryX=1;entryY=0.25;entryDx=0;entryDy=0;fillColor=#d5e8d4;strokeColor=#82b366;strokeWidth=2;" edge="1" parent="1" target="Ww_5MGNS50c624U9AVJw-40">
          <mxGeometry relative="1" as="geometry">
            <Array as="points">
              <mxPoint x="480" y="765" />
            </Array>
            <mxPoint x="480" y="680" as="sourcePoint" />
          </mxGeometry>
        </mxCell>
        <mxCell id="Ww_5MGNS50c624U9AVJw-42" value="" style="edgeStyle=orthogonalEdgeStyle;rounded=0;orthogonalLoop=1;jettySize=auto;html=1;fillColor=#d5e8d4;strokeColor=#82b366;strokeWidth=2;" edge="1" parent="1" source="Ww_5MGNS50c624U9AVJw-44" target="Ww_5MGNS50c624U9AVJw-40">
          <mxGeometry relative="1" as="geometry" />
        </mxCell>
        <mxCell id="Ww_5MGNS50c624U9AVJw-43" value="" style="edgeStyle=orthogonalEdgeStyle;rounded=1;orthogonalLoop=1;jettySize=auto;html=1;fillColor=#f8cecc;strokeColor=#b85450;strokeWidth=2;" edge="1" parent="1" source="Ww_5MGNS50c624U9AVJw-44">
          <mxGeometry relative="1" as="geometry">
            <mxPoint x="425" y="650" as="targetPoint" />
          </mxGeometry>
        </mxCell>
        <mxCell id="Ww_5MGNS50c624U9AVJw-44" value="Team Joined" style="rhombus;whiteSpace=wrap;html=1;fillColor=#fff2cc;strokeColor=#d6b656;" vertex="1" parent="1">
          <mxGeometry x="240" y="610" width="120" height="80" as="geometry" />
        </mxCell>
        <mxCell id="Ww_5MGNS50c624U9AVJw-47" value="Roster(s)" style="ellipse;whiteSpace=wrap;html=1;fillColor=#dae8fc;strokeColor=#6c8ebf;" vertex="1" parent="1">
          <mxGeometry x="165" y="835" width="75" height="40" as="geometry" />
        </mxCell>
        <mxCell id="Ww_5MGNS50c624U9AVJw-48" value="Chat(s)" style="ellipse;whiteSpace=wrap;html=1;fillColor=#dae8fc;strokeColor=#6c8ebf;" vertex="1" parent="1">
          <mxGeometry x="270" y="835" width="80" height="40" as="geometry" />
        </mxCell>
        <mxCell id="Ww_5MGNS50c624U9AVJw-55" value="" style="edgeStyle=orthogonalEdgeStyle;rounded=0;orthogonalLoop=1;jettySize=auto;html=1;" edge="1" parent="1" source="Ww_5MGNS50c624U9AVJw-49" target="Ww_5MGNS50c624U9AVJw-54">
          <mxGeometry relative="1" as="geometry" />
        </mxCell>
        <mxCell id="Ww_5MGNS50c624U9AVJw-49" value="DrawBoard(s)" style="ellipse;whiteSpace=wrap;html=1;fillColor=#dae8fc;strokeColor=#6c8ebf;" vertex="1" parent="1">
          <mxGeometry x="370" y="830" width="90" height="50" as="geometry" />
        </mxCell>
        <mxCell id="Ww_5MGNS50c624U9AVJw-51" value="scoreboard" style="ellipse;whiteSpace=wrap;html=1;fillColor=#dae8fc;strokeColor=#6c8ebf;" vertex="1" parent="1">
          <mxGeometry x="270" y="900" width="80" height="40" as="geometry" />
        </mxCell>
        <mxCell id="Ww_5MGNS50c624U9AVJw-52" value="Game Settings" style="rounded=0;whiteSpace=wrap;html=1;fillColor=#f8cecc;strokeColor=#b85450;" vertex="1" parent="1">
          <mxGeometry x="680" y="825" width="120" height="60" as="geometry" />
        </mxCell>
        <mxCell id="Ww_5MGNS50c624U9AVJw-53" value="" style="edgeStyle=orthogonalEdgeStyle;rounded=1;orthogonalLoop=1;jettySize=auto;html=1;fillColor=#f8cecc;strokeColor=#b85450;strokeWidth=2;entryX=0;entryY=0.5;entryDx=0;entryDy=0;" edge="1" parent="1" source="Ww_5MGNS50c624U9AVJw-54" target="Ww_5MGNS50c624U9AVJw-52">
          <mxGeometry relative="1" as="geometry">
            <mxPoint x="702.5" y="870" as="targetPoint" />
          </mxGeometry>
        </mxCell>
        <mxCell id="Ww_5MGNS50c624U9AVJw-54" value="Game Host" style="rhombus;whiteSpace=wrap;html=1;fillColor=#fff2cc;strokeColor=#d6b656;" vertex="1" parent="1">
          <mxGeometry x="520" y="815" width="120" height="80" as="geometry" />
        </mxCell>
      </root>
    </mxGraphModel>
  </diagram>
</mxfile>
